<?xml version="1.0" encoding="UTF-8" standalone="no"?>
<svg width="24px" height="24px" viewBox="0 0 24 24" version="1.1" xmlns="http://www.w3.org/2000/svg" xmlns:xlink="http://www.w3.org/1999/xlink">
    <!-- Generator: Sketch 40.3 (33839) - http://www.bohemiancoding.com/sketch -->
    <title>ic_cart_button</title>
    <desc>Created with Sketch.</desc>
    <defs></defs>
    <g id="Symbols" stroke="none" stroke-width="1" fill="none" fill-rule="evenodd">
        <g id="ic_cart_button" fill="#E14D45">
            <path d="M9.2,16.2 C8.43,16.2 7.807,16.83 7.807,17.6 C7.807,18.37 8.43,19 9.2,19 C9.97,19 10.6,18.37 10.6,17.6 C10.6,16.83 9.97,16.2 9.2,16.2 L9.2,16.2 Z M5,5 L5,6.4 L6.4,6.4 L8.92,11.713 L7.975,13.428 C7.863,13.624 7.8,13.855 7.8,14.1 C7.8,14.87 8.43,15.5 9.2,15.5 L17.6,15.5 L17.6,14.1 L9.494,14.1 C9.396,14.1 9.319,14.023 9.319,13.925 L9.34,13.841 L9.97,12.7 L15.185,12.7 C15.71,12.7 16.172,12.413 16.41,11.979 L18.916,7.436 C18.972,7.338 19,7.219 19,7.1 C19,6.715 18.685,6.4 18.3,6.4 L7.947,6.4 L7.289,5 L5,5 L5,5 Z M16.2,16.2 C15.43,16.2 14.807,16.83 14.807,17.6 C14.807,18.37 15.43,19 16.2,19 C16.97,19 17.6,18.37 17.6,17.6 C17.6,16.83 16.97,16.2 16.2,16.2 L16.2,16.2 Z" id="ic_cart_navbar"></path>
        </g>
    </g>
</svg>